<svg version="1.1" id="Layer_1" xmlns="http://www.w3.org/2000/svg" xmlns:xlink="http://www.w3.org/1999/xlink" x="0px" y="0px"
	 width="100%" viewBox="0 0 200 202" enable-background="new 0 0 200 202" xml:space="preserve">
<path fill="#000000" opacity="1.000000" stroke="none" 
	d="
M123.000000,203.000000 
	C82.025200,203.000000 41.550400,203.000000 1.037799,203.000000 
	C1.037799,135.733780 1.037799,68.467537 1.037799,1.100643 
	C67.557953,1.100643 134.116119,1.100643 200.837128,1.100643 
	C200.837128,68.333015 200.837128,135.666473 200.837128,203.000000 
	C175.134476,203.000000 149.317245,203.000000 123.000000,203.000000 
M13.999886,89.000000 
	C13.999886,89.000000 13.987580,88.990356 13.362154,89.331154 
	C11.221825,92.496140 12.039638,94.374413 15.805428,95.016891 
	C17.539429,95.312737 19.261518,95.678391 21.141481,96.466171 
	C21.317190,96.754555 21.568691,96.940353 21.971540,97.911469 
	C22.006456,99.235008 21.790348,100.625267 22.121225,101.870148 
	C23.333445,106.430901 21.983198,111.900894 26.964657,115.037315 
	C26.964657,115.037315 26.754957,115.256042 26.889965,115.931160 
	C28.863649,120.836296 33.269444,122.577171 37.781296,124.261864 
	C37.781296,124.261864 37.839710,124.251495 38.166473,124.793121 
	C39.119263,125.113686 40.072052,125.434258 41.474365,125.904678 
	C41.474365,125.904678 41.931362,126.029915 42.438255,126.695839 
	C45.611313,126.832047 48.784367,126.968246 52.141415,127.563332 
	C52.345844,127.849052 52.622307,128.014160 53.012699,128.986633 
	C53.012779,142.849609 52.984612,156.712738 53.052944,170.575378 
	C53.060482,172.104507 53.620319,173.630890 53.985195,175.962784 
	C54.078167,177.300858 54.171139,178.638947 54.132580,180.810593 
	C54.639637,182.956055 55.146694,185.101517 55.710796,187.282196 
	C55.710796,187.282196 55.742191,187.341431 55.998554,188.074631 
	C62.279015,188.378799 68.590958,189.214325 74.831490,188.844620 
	C81.705833,188.437378 82.303047,186.865311 79.914871,179.476349 
	C79.871574,179.307571 79.828285,179.138779 79.901909,178.050873 
	C80.950233,170.377548 81.998558,162.704208 83.010384,154.994308 
	C83.010384,154.994308 83.021965,155.044418 83.510658,154.893814 
	C83.631050,154.597382 83.751434,154.300934 83.992859,153.569092 
	C83.992859,153.569092 84.087578,153.127228 84.700684,152.793823 
	C86.971840,151.515198 89.137016,149.972076 91.535446,149.011124 
	C97.119339,146.773880 97.989922,145.116150 95.891113,139.024551 
	C94.036934,139.410568 92.009224,139.499084 90.271317,140.254395 
	C83.971817,142.992264 77.077576,145.131012 74.993385,153.005005 
	C74.993385,153.005005 75.005554,153.042603 74.439751,153.490936 
	C73.370506,157.675476 72.301262,161.860031 71.182175,166.713181 
	C71.214645,167.158279 71.247116,167.603394 71.096550,168.933136 
	C71.120781,171.961319 71.145020,174.989487 71.254997,178.637192 
	C71.174667,179.490555 71.094337,180.343903 70.174271,181.066452 
	C67.458565,180.687042 64.742859,180.307648 61.910908,179.005814 
	C61.976753,161.938782 62.042599,144.871735 63.018349,127.919258 
	C75.983650,127.897186 88.948952,127.875122 102.451454,127.910728 
	C102.628883,127.879814 102.806313,127.848907 103.776192,127.985603 
	C104.847916,127.928185 105.919640,127.870758 107.769653,127.957939 
	C113.121902,129.969757 118.560699,131.780197 123.808418,134.035248 
	C134.769547,138.745468 143.942047,145.832382 150.999207,155.521347 
	C153.226929,158.579834 155.135925,161.892120 157.564560,164.773163 
	C158.716080,166.139160 160.746628,166.764160 162.378952,167.724854 
	C163.225906,165.885864 164.728760,164.076462 164.813309,162.203064 
	C165.360077,150.088715 165.997955,137.952866 165.769608,125.839828 
	C165.653091,119.659592 166.953003,115.251183 173.710114,112.930450 
	C176.241974,110.411079 178.773834,107.891716 181.303604,105.317566 
	C181.303604,105.317566 181.266556,105.277145 181.954483,105.108902 
	C183.238235,100.727928 184.522003,96.346962 185.898041,91.236473 
	C185.848373,90.505066 185.798706,89.773659 185.901520,88.236107 
	C185.706924,80.499474 178.921692,70.504707 170.325317,68.880310 
	C166.517838,67.049240 165.841415,63.996223 165.838806,59.939903 
	C165.830261,46.665779 165.413010,33.388279 164.889481,20.122482 
	C164.819656,18.353151 163.232285,16.643713 162.347687,14.906532 
	C160.486053,16.192364 158.201126,17.139463 156.847137,18.831524 
	C153.598938,22.890779 151.118774,27.588537 147.713333,31.491766 
	C143.820633,35.953468 139.261932,39.834091 134.261871,44.005466 
	C132.179642,45.339275 130.097427,46.673084 127.391472,48.073513 
	C126.887543,48.361732 126.383621,48.649952 125.152016,49.025925 
	C121.089058,50.659210 117.026100,52.292492 112.493484,54.096909 
	C112.493484,54.096909 112.015289,54.242493 111.253510,54.060993 
	C109.499130,54.434498 107.744751,54.807999 105.270027,55.322487 
	C98.041931,55.546982 90.815170,55.884338 83.585426,55.970371 
	C71.798286,56.110638 59.997997,55.805168 48.226505,56.272938 
	C43.611233,56.456341 38.522190,57.258190 34.588581,59.458374 
	C26.260309,64.116608 22.441565,71.979080 22.028450,81.572166 
	C21.946550,83.473953 20.680559,85.324760 19.202097,87.073265 
	C17.464855,87.711403 15.727613,88.349533 13.999886,89.000000 
z"/>
<path fill="#1B42A5" opacity="1.000000" stroke="none" 
	d="
M71.014008,181.197266 
	C71.094337,180.343903 71.174667,179.490555 71.517845,178.321991 
	C72.188881,178.004135 72.597076,178.001450 73.327393,178.046356 
	C75.493889,179.297806 77.495621,181.127853 78.230209,177.143677 
	C78.901741,177.847839 79.343369,178.408920 79.784996,178.970001 
	C79.828285,179.138779 79.871574,179.307571 79.926682,180.060181 
	C79.625999,182.430054 79.313499,184.216095 78.941025,185.655380 
	C76.189911,183.373550 74.298630,184.172638 72.716888,187.309387 
	C66.864250,187.508591 61.303219,187.425018 55.742191,187.341431 
	C55.742191,187.341431 55.710796,187.282196 55.796387,186.833328 
	C55.342686,184.248642 54.803398,182.112839 54.264111,179.977020 
	C54.171139,178.638947 54.078167,177.300858 53.975063,175.080093 
	C54.088699,158.931335 54.215382,143.665298 54.279709,128.398972 
	C54.280174,128.287369 53.425949,128.172180 52.970802,128.058670 
	C52.622307,128.014160 52.345844,127.849052 52.028801,126.977112 
	C50.886284,125.845451 49.832531,124.805824 48.831291,124.854156 
	C46.517788,124.965828 44.229736,125.604813 41.931362,126.029915 
	C41.931362,126.029915 41.474365,125.904678 41.164055,125.501465 
	C39.849068,124.816002 38.844387,124.533752 37.839710,124.251495 
	C37.839710,124.251495 37.781296,124.261864 37.803268,123.893929 
	C34.135147,120.769348 30.445051,118.012695 26.754955,115.256042 
	C26.754957,115.256042 26.964657,115.037315 26.937059,114.723175 
	C25.238304,108.613869 23.567144,102.818718 21.895985,97.023560 
	C21.568691,96.940353 21.317190,96.754555 21.018711,95.893982 
	C18.859882,94.360931 16.823826,93.400063 14.262482,92.191299 
	C14.208330,91.560760 14.097955,90.275558 13.987580,88.990356 
	C13.987580,88.990356 13.999886,89.000000 14.360334,88.997147 
	C16.467390,88.395889 18.213999,87.797478 19.960608,87.199074 
	C20.680559,85.324760 21.946550,83.473953 22.028450,81.572166 
	C22.441565,71.979080 26.260309,64.116608 34.588581,59.458374 
	C38.522190,57.258190 43.611233,56.456341 48.226505,56.272938 
	C59.997997,55.805168 71.798286,56.110638 83.585426,55.970371 
	C90.815170,55.884338 98.041931,55.546982 105.696030,55.544769 
	C108.086449,55.258862 110.050865,54.750675 112.015289,54.242493 
	C112.015289,54.242493 112.493484,54.096909 112.957840,54.278038 
	C115.364410,54.293194 117.325539,54.243851 119.244209,53.932678 
	C121.831367,53.513092 125.679916,50.500576 125.879692,48.938171 
	C126.383621,48.649952 126.887543,48.361732 128.094391,48.040642 
	C132.177139,48.676769 133.630447,46.391869 134.992615,43.967205 
	C139.261932,39.834091 143.820633,35.953468 147.713333,31.491766 
	C151.118774,27.588537 153.598938,22.890779 156.847137,18.831524 
	C158.201126,17.139463 160.486053,16.192364 162.347687,14.906536 
	C163.232285,16.643713 164.819656,18.353151 164.889481,20.122482 
	C165.413010,33.388279 165.830261,46.665779 165.838806,59.939903 
	C165.841415,63.996223 166.517838,67.049240 170.692917,69.350815 
	C171.707901,70.552902 172.355286,71.284485 173.001266,72.411804 
	C172.654663,74.568283 172.309464,76.329033 171.568665,78.046387 
	C169.847870,78.027573 168.522690,78.052155 166.782394,78.127876 
	C165.925339,78.808311 165.107239,79.432594 165.098801,80.067657 
	C164.998993,87.564713 164.960556,95.064430 165.093185,102.560143 
	C165.108002,103.398079 166.274277,104.215645 167.102875,105.332649 
	C168.556198,105.226433 170.183792,105.194199 170.999084,104.364120 
	C173.235214,102.087440 175.129974,99.475494 177.487122,97.065414 
	C177.802841,98.346962 178.289948,99.961433 177.692978,100.701790 
	C175.177780,103.821144 172.339096,106.679665 169.228058,110.057915 
	C170.556122,110.741821 171.778549,111.371323 172.999069,112.254990 
	C173.000504,112.678566 173.003830,112.847984 173.007172,113.017403 
	C166.953003,115.251183 165.653091,119.659592 165.769608,125.839828 
	C165.997955,137.952866 165.360077,150.088715 164.813309,162.203064 
	C164.728760,164.076462 163.225906,165.885864 162.378952,167.724854 
	C160.746628,166.764160 158.716080,166.139160 157.564560,164.773163 
	C155.135925,161.892120 153.226929,158.579834 150.999207,155.521347 
	C143.942047,145.832382 134.769547,138.745468 123.808418,134.035248 
	C118.560699,131.780197 113.121902,129.969757 107.208344,127.615143 
	C105.425926,127.454239 104.204834,127.636124 102.983734,127.818008 
	C102.806313,127.848907 102.628883,127.879814 101.981377,127.562332 
	C99.996590,127.088234 98.481873,126.962524 96.647636,126.577942 
	C85.699280,126.218887 75.070480,126.088066 64.441582,126.080856 
	C63.652000,126.080322 62.861816,126.967140 62.141251,127.526199 
	C62.210598,127.610954 62.108444,127.804703 62.108444,127.804703 
	C62.042599,144.871735 61.976753,161.938782 62.036549,179.847641 
	C65.034073,182.230957 67.929649,183.359497 71.014008,181.197266 
M130.894989,54.724495 
	C130.810486,54.678242 130.725967,54.631985 130.641464,54.585728 
	C130.757141,54.726822 130.872818,54.867920 130.978271,55.493347 
	C130.978271,55.493347 130.986893,55.977707 130.699570,56.499020 
	C130.133804,56.657295 129.568054,56.815575 128.529373,56.446411 
	C123.764832,58.017593 118.994537,59.572144 114.253746,61.211994 
	C114.030441,61.289234 114.069580,62.125172 113.429588,62.684502 
	C113.055099,62.684921 112.680603,62.685345 111.970345,62.052544 
	C109.703148,63.058342 107.435951,64.064140 105.050797,65.150604 
	C105.050797,65.150604 104.938782,65.061844 104.554070,65.059135 
	C104.554070,65.059135 104.170235,65.037720 103.674583,65.190674 
	C103.444069,65.439301 103.213554,65.687927 102.966835,66.881721 
	C102.940178,82.595245 102.913521,98.308769 102.357742,114.312904 
	C102.932083,115.861717 103.506424,117.410538 104.946869,119.032166 
	C106.915565,119.141029 108.987679,118.887917 110.836563,119.416145 
	C125.323822,123.555153 138.908813,129.296265 149.441071,140.746323 
	C151.281815,142.747452 154.374832,143.596664 157.535721,144.436874 
	C157.691177,143.468506 157.981766,142.500229 157.982483,141.531738 
	C158.004593,111.963654 158.007843,82.395538 157.963272,52.827499 
	C157.961365,51.564495 157.476120,50.302216 157.118271,48.194195 
	C157.164307,46.779442 157.210327,45.364689 157.694824,43.396793 
	C157.445175,41.619667 157.195526,39.842545 156.207932,38.035885 
	C155.199799,38.459564 154.029144,38.681133 153.209976,39.339813 
	C148.027115,43.507259 142.922119,47.771511 137.475571,52.166988 
	C137.273331,52.301838 137.119537,52.478786 136.524567,52.858555 
	C136.360992,52.910946 136.197403,52.963337 135.326477,53.003994 
	C134.541336,53.649418 133.756180,54.294838 133.003571,54.992153 
	C133.003571,54.992153 132.946808,54.969158 132.300827,54.971207 
	C131.870041,54.977135 131.439270,54.983063 130.894989,54.724495 
M69.449020,117.971153 
	C69.449020,117.971153 69.821442,118.011551 70.773178,118.146141 
	C77.167870,118.221878 83.562553,118.297615 90.331665,118.699089 
	C90.907692,118.537468 91.483711,118.375839 92.734421,118.152405 
	C93.180695,118.086708 93.626976,118.021004 94.472565,117.953850 
	C94.472565,117.953850 94.870453,117.987694 95.524498,117.446312 
	C95.680206,116.810562 95.970825,116.175041 95.971893,115.539032 
	C95.998451,99.744911 96.014496,83.950668 95.950432,68.156776 
	C95.946175,67.107109 95.291771,66.060089 94.460365,65.022865 
	C94.460365,65.022865 93.981178,65.040764 93.476898,64.924492 
	C93.309105,64.884445 93.141319,64.844391 92.323944,64.310295 
	C76.125999,64.209488 59.927662,64.042397 43.730869,64.137802 
	C42.478821,64.145172 41.237637,65.997482 39.642914,67.567863 
	C36.855022,70.541496 31.501009,71.390251 31.116367,77.193634 
	C31.079210,80.463264 31.042051,83.732887 30.941422,87.911171 
	C30.887465,90.950264 30.833508,93.989357 30.305191,97.666588 
	C30.561611,101.165962 28.071316,105.077118 32.201141,108.639000 
	C35.123856,112.281769 37.327766,116.831451 43.158615,117.713768 
	C43.775146,117.870644 44.391674,118.027519 45.661247,118.694359 
	C53.476658,118.504585 61.292065,118.314804 69.449020,117.971153 
z"/>
<path fill="#1B43AC" opacity="1.000000" stroke="none" 
	d="
M171.964264,78.089783 
	C172.309464,76.329033 172.654663,74.568283 173.328201,72.545677 
	C176.101486,75.065880 178.753387,77.696823 180.928741,80.675735 
	C182.815826,83.259872 184.163162,86.238167 185.749039,89.042252 
	C185.798706,89.773659 185.848373,90.505066 185.514008,91.697083 
	C183.842178,96.530846 182.554367,100.903999 181.266556,105.277145 
	C181.266556,105.277145 181.303604,105.317566 180.940155,105.250580 
	C178.051453,107.456009 175.526215,109.728416 173.000977,112.000824 
	C171.778549,111.371323 170.556122,110.741821 169.228058,110.057915 
	C172.339096,106.679665 175.177780,103.821144 177.692978,100.701790 
	C178.289948,99.961433 177.802841,98.346962 177.447723,96.659386 
	C177.091675,93.196198 177.767700,90.007042 176.940948,87.272179 
	C175.954224,84.008179 173.680481,81.133255 171.964264,78.089783 
z"/>
<path fill="#1B3F94" opacity="1.000000" stroke="none" 
	d="
M75.032463,152.995026 
	C77.077576,145.131012 83.971817,142.992264 90.271317,140.254395 
	C92.009224,139.499084 94.036934,139.410568 95.891113,139.024551 
	C97.989922,145.116150 97.119339,146.773880 91.535446,149.011124 
	C89.137016,149.972076 86.971840,151.515198 84.238525,152.648834 
	C80.607689,148.145370 77.918251,152.317841 75.032463,152.995026 
z"/>
<path fill="#1942AD" opacity="1.000000" stroke="none" 
	d="
M75.012924,153.000015 
	C77.918251,152.317841 80.607689,148.145370 83.931969,152.815521 
	C84.087578,153.127228 83.992859,153.569092 83.738922,153.913422 
	C83.241867,154.467697 83.087524,154.729919 83.021965,155.044418 
	C83.021965,155.044418 83.010384,154.994308 82.659622,155.005981 
	C81.353233,155.771942 79.596794,156.497040 79.568077,157.285110 
	C79.327591,163.884171 75.166763,170.184952 78.000305,177.000610 
	C77.495621,181.127853 75.493889,179.297806 73.323578,177.624710 
	C72.424942,174.119812 71.852264,171.084152 71.279587,168.048492 
	C71.247116,167.603394 71.214645,167.158279 71.530884,166.317032 
	C76.311691,162.451004 74.048332,157.355942 75.005554,153.042603 
	C75.005554,153.042603 74.993385,153.005005 75.012924,153.000015 
z"/>
<path fill="#1B3F94" opacity="1.000000" stroke="none" 
	d="
M78.230209,177.143677 
	C75.166763,170.184952 79.327591,163.884171 79.568077,157.285110 
	C79.596794,156.497040 81.353233,155.771942 82.677864,155.024277 
	C81.998558,162.704208 80.950233,170.377548 79.843452,178.510437 
	C79.343369,178.408920 78.901741,177.847839 78.230209,177.143677 
z"/>
<path fill="#1A3D8F" opacity="1.000000" stroke="none" 
	d="
M185.825287,88.639175 
	C184.163162,86.238167 182.815826,83.259872 180.928741,80.675735 
	C178.753387,77.696823 176.101486,75.065880 173.329605,72.149948 
	C172.355286,71.284485 171.707901,70.552902 171.015717,69.521408 
	C178.921692,70.504707 185.706924,80.499474 185.825287,88.639175 
z"/>
<path fill="#1B3F94" opacity="1.000000" stroke="none" 
	d="
M55.870373,187.708038 
	C61.303219,187.425018 66.864250,187.508591 73.007935,187.414215 
	C75.394058,186.824890 77.197533,186.413513 79.001007,186.002136 
	C79.313499,184.216095 79.625999,182.430054 79.972275,180.317535 
	C82.303047,186.865311 81.705833,188.437378 74.831490,188.844620 
	C68.590958,189.214325 62.279015,188.378799 55.870373,187.708038 
z"/>
<path fill="#1B3F94" opacity="1.000000" stroke="none" 
	d="
M52.991753,128.522644 
	C53.425949,128.172180 54.280174,128.287369 54.279709,128.398972 
	C54.215382,143.665298 54.088699,158.931335 53.944469,174.677979 
	C53.620319,173.630890 53.060482,172.104507 53.052944,170.575378 
	C52.984612,156.712738 53.012779,142.849609 52.991753,128.522644 
z"/>
<path fill="#BEDCFE" opacity="1.000000" stroke="none" 
	d="
M96.967163,126.836815 
	C98.481873,126.962524 99.996590,127.088234 101.712776,127.533501 
	C88.948952,127.875122 75.983650,127.897186 62.563396,127.861984 
	C62.108444,127.804703 62.210598,127.610954 62.592514,127.395996 
	C74.305336,127.066292 85.636253,126.951553 96.967163,126.836815 
z"/>
<path fill="#1B3F94" opacity="1.000000" stroke="none" 
	d="
M21.933762,97.467514 
	C23.567144,102.818718 25.238304,108.613869 26.822586,114.822411 
	C21.983198,111.900894 23.333445,106.430901 22.121225,101.870148 
	C21.790348,100.625267 22.006456,99.235008 21.933762,97.467514 
z"/>
<path fill="#1C4299" opacity="1.000000" stroke="none" 
	d="
M125.515854,48.982048 
	C125.679916,50.500576 121.831367,53.513092 119.244209,53.932678 
	C117.325539,54.243851 115.364410,54.293194 113.192673,54.192474 
	C117.026100,52.292492 121.089058,50.659210 125.515854,48.982048 
z"/>
<path fill="#1A3D8F" opacity="1.000000" stroke="none" 
	d="
M181.610519,105.193024 
	C182.554367,100.903999 183.842178,96.530846 185.467865,92.061844 
	C184.522003,96.346962 183.238235,100.727928 181.610519,105.193024 
z"/>
<path fill="#1B3F94" opacity="1.000000" stroke="none" 
	d="
M74.722656,153.266769 
	C74.048332,157.355942 76.311691,162.451004 71.555801,165.982727 
	C72.301262,161.860031 73.370506,157.675476 74.722656,153.266769 
z"/>
<path fill="#1B3F94" opacity="1.000000" stroke="none" 
	d="
M26.822460,115.593597 
	C30.445051,118.012695 34.135147,120.769348 37.773708,123.891495 
	C33.269444,122.577171 28.863649,120.836296 26.822460,115.593597 
z"/>
<path fill="#1A3D8F" opacity="1.000000" stroke="none" 
	d="
M172.999069,112.254990 
	C175.526215,109.728416 178.051453,107.456009 180.941193,105.277969 
	C178.773834,107.891716 176.241974,110.411079 173.358643,112.973923 
	C173.003830,112.847984 173.000504,112.678566 172.999069,112.254990 
z"/>
<path fill="#1B3F94" opacity="1.000000" stroke="none" 
	d="
M13.674868,89.160751 
	C14.097955,90.275558 14.208330,91.560760 14.262482,92.191299 
	C16.823826,93.400063 18.859882,94.360931 20.942474,95.667099 
	C19.261518,95.678391 17.539429,95.312737 15.805428,95.016891 
	C12.039638,94.374413 11.221825,92.496140 13.674868,89.160751 
z"/>
<path fill="#1B3F94" opacity="1.000000" stroke="none" 
	d="
M71.188065,168.490814 
	C71.852264,171.084152 72.424942,174.119812 73.001450,177.577118 
	C72.597076,178.001450 72.188881,178.004135 71.474976,178.012238 
	C71.145020,174.989487 71.120781,171.961319 71.188065,168.490814 
z"/>
<path fill="#1B3F94" opacity="1.000000" stroke="none" 
	d="
M42.184807,126.362877 
	C44.229736,125.604813 46.517788,124.965828 48.831291,124.854156 
	C49.832531,124.805824 50.886284,125.845451 51.936806,126.747665 
	C48.784367,126.968246 45.611313,126.832047 42.184807,126.362877 
z"/>
<path fill="#1C4299" opacity="1.000000" stroke="none" 
	d="
M134.627243,43.986336 
	C133.630447,46.391869 132.177139,48.676769 128.406250,48.007332 
	C130.097427,46.673084 132.179642,45.339275 134.627243,43.986336 
z"/>
<path fill="#1B3F94" opacity="1.000000" stroke="none" 
	d="
M70.594139,181.131866 
	C67.929649,183.359497 65.034073,182.230957 62.094673,180.308853 
	C64.742859,180.307648 67.458565,180.687042 70.594139,181.131866 
z"/>
<path fill="#1B3F94" opacity="1.000000" stroke="none" 
	d="
M54.198345,180.393799 
	C54.803398,182.112839 55.342686,184.248642 55.767860,186.815720 
	C55.146694,185.101517 54.639637,182.956055 54.198345,180.393799 
z"/>
<path fill="#1C4299" opacity="1.000000" stroke="none" 
	d="
M111.634399,54.151741 
	C110.050865,54.750675 108.086449,55.258862 106.056198,55.474277 
	C107.744751,54.807999 109.499130,54.434498 111.634399,54.151741 
z"/>
<path fill="#1B3F94" opacity="1.000000" stroke="none" 
	d="
M19.581352,87.136169 
	C18.213999,87.797478 16.467390,88.395889 14.355577,88.990982 
	C15.727613,88.349533 17.464855,87.711403 19.581352,87.136169 
z"/>
<path fill="#1D4290" opacity="1.000000" stroke="none" 
	d="
M103.379959,127.901810 
	C104.204834,127.636124 105.425926,127.454239 106.819199,127.542847 
	C105.919640,127.870758 104.847916,127.928185 103.379959,127.901810 
z"/>
<path fill="#1B3F94" opacity="1.000000" stroke="none" 
	d="
M38.003090,124.522308 
	C38.844387,124.533752 39.849068,124.816002 40.939293,125.426537 
	C40.072052,125.434258 39.119263,125.113686 38.003090,124.522308 
z"/>
<path fill="#1B3F94" opacity="1.000000" stroke="none" 
	d="
M83.266312,154.969116 
	C83.087524,154.729919 83.241867,154.467697 83.678406,154.131119 
	C83.751434,154.300934 83.631050,154.597382 83.266312,154.969116 
z"/>
<path fill="#000000" opacity="1.000000" stroke="none" 
	d="
M137.791412,52.003811 
	C142.922119,47.771511 148.027115,43.507259 153.209976,39.339813 
	C154.029144,38.681133 155.199799,38.459564 156.601654,38.472191 
	C157.082382,40.588974 157.169373,42.269455 157.256363,43.949936 
	C157.210327,45.364689 157.164307,46.779442 157.084351,49.075600 
	C156.996765,81.630638 156.943115,113.304268 156.889481,144.977905 
	C154.374832,143.596664 151.281815,142.747452 149.441071,140.746323 
	C138.908813,129.296265 125.323822,123.555153 110.836563,119.416145 
	C108.987679,118.887917 106.915565,119.141029 104.477257,118.588562 
	C103.913727,116.788200 103.819809,115.431450 103.820427,113.795288 
	C103.958076,113.324020 104.001190,113.132164 104.450256,112.779503 
	C104.883736,96.766411 104.911263,80.914124 104.938782,65.061844 
	C104.938782,65.061844 105.050797,65.150604 105.479843,65.060677 
	C108.041298,64.209084 110.173706,63.447422 112.306114,62.685760 
	C112.680603,62.685345 113.055099,62.684921 114.015732,62.682041 
	C119.402016,60.777668 124.202148,58.875759 129.002289,56.973854 
	C129.568054,56.815575 130.133804,56.657295 131.147400,56.219803 
	C132.045761,55.616779 132.496277,55.292969 132.946808,54.969158 
	C132.946808,54.969158 133.003571,54.992153 133.312225,54.946045 
	C134.425201,54.271870 135.229492,53.643803 136.033798,53.015732 
	C136.197403,52.963337 136.360992,52.910946 136.986664,52.799026 
	C137.757950,52.585171 137.872162,52.339939 137.791412,52.003811 
z"/>
<path fill="#000000" opacity="1.000000" stroke="none" 
	d="
M94.073250,117.955307 
	C93.626976,118.021004 93.180695,118.086708 92.043472,118.103477 
	C90.887421,118.160812 90.422333,118.267082 89.957245,118.373352 
	C83.562553,118.297615 77.167870,118.221878 70.188599,117.655380 
	C60.704731,117.150948 51.805431,117.137268 42.906136,117.123589 
	C37.327766,116.831451 35.123856,112.281769 32.110031,107.899200 
	C31.605801,103.782425 31.192675,100.405434 30.779551,97.028450 
	C30.833508,93.989357 30.887465,90.950264 31.307985,87.211227 
	C31.735928,83.330368 31.797306,80.149467 31.858686,76.968559 
	C31.501009,71.390251 36.855022,70.541496 40.146095,67.257462 
	C41.444649,66.593361 42.240028,66.239670 43.502518,65.933853 
	C51.876221,65.959099 59.782814,65.936470 68.175446,65.943329 
	C76.765503,65.583336 84.869514,65.193840 92.973526,64.804344 
	C93.141319,64.844391 93.309105,64.884445 93.732559,65.446991 
	C94.016563,83.298096 94.044907,100.626701 94.073250,117.955307 
z"/>
<path fill="#000000" opacity="1.000000" stroke="none" 
	d="
M171.568665,78.046387 
	C173.680481,81.133255 175.954224,84.008179 176.940948,87.272179 
	C177.767700,90.007042 177.091675,93.196198 177.120453,96.590225 
	C175.129974,99.475494 173.235214,102.087440 170.999084,104.364120 
	C170.183792,105.194199 168.556198,105.226433 167.139771,104.884003 
	C167.052734,95.455818 167.125122,86.766273 167.197495,78.076736 
	C168.522690,78.052155 169.847870,78.027573 171.568665,78.046387 
z"/>
<path fill="#21418E" opacity="1.000000" stroke="none" 
	d="
M157.212601,144.707397 
	C156.943115,113.304268 156.996765,81.630638 157.133224,49.498299 
	C157.476120,50.302216 157.961365,51.564495 157.963272,52.827499 
	C158.007843,82.395538 158.004593,111.963654 157.982483,141.531738 
	C157.981766,142.500229 157.691177,143.468506 157.212601,144.707397 
z"/>
<path fill="#1F3C84" opacity="1.000000" stroke="none" 
	d="
M43.035404,65.885971 
	C42.240028,66.239670 41.444649,66.593361 40.320339,66.969666 
	C41.237637,65.997482 42.478821,64.145172 43.730869,64.137802 
	C59.927662,64.042397 76.125999,64.209488 92.648735,64.557320 
	C84.869514,65.193840 76.765503,65.583336 67.964516,65.595367 
	C64.480293,65.143471 61.687866,64.925224 58.906910,65.025429 
	C53.612946,65.216171 48.325535,65.588844 43.035404,65.885971 
z"/>
<path fill="#5C78AA" opacity="1.000000" stroke="none" 
	d="
M94.272903,117.954575 
	C94.044907,100.626701 94.016563,83.298096 93.984703,65.505127 
	C93.981178,65.040764 94.460365,65.022865 94.724792,65.484550 
	C94.949631,83.293388 94.910034,100.640541 94.870453,117.987694 
	C94.870453,117.987694 94.472565,117.953850 94.272903,117.954575 
z"/>
<path fill="#1B3E93" opacity="1.000000" stroke="none" 
	d="
M95.197472,117.717003 
	C94.910034,100.640541 94.949631,83.293388 94.964493,65.479034 
	C95.291771,66.060089 95.946175,67.107109 95.950432,68.156776 
	C96.014496,83.950668 95.998451,99.744911 95.971893,115.539032 
	C95.970825,116.175041 95.680206,116.810562 95.197472,117.717003 
z"/>
<path fill="#213767" opacity="1.000000" stroke="none" 
	d="
M104.044296,112.940315 
	C104.001190,113.132164 103.958076,113.324020 103.611252,113.780029 
	C103.307549,114.044174 102.886856,114.022293 102.886856,114.022293 
	C102.913521,98.308769 102.940178,82.595245 103.192596,66.423553 
	C103.418365,65.965378 103.854347,65.974609 103.920937,66.440659 
	C104.006447,82.251251 104.025368,97.595779 104.044296,112.940315 
z"/>
<path fill="#F8FFFF" opacity="1.000000" stroke="none" 
	d="
M104.450256,112.779503 
	C104.025368,97.595779 104.006447,82.251251 104.007423,66.209190 
	C104.027321,65.511665 104.170235,65.037720 104.170235,65.037720 
	C104.170235,65.037720 104.554070,65.059135 104.746429,65.060486 
	C104.911263,80.914124 104.883736,96.766411 104.450256,112.779503 
z"/>
<path fill="#1F4688" opacity="1.000000" stroke="none" 
	d="
M166.782394,78.127869 
	C167.125122,86.766273 167.052734,95.455818 166.943466,104.594009 
	C166.274277,104.215645 165.108002,103.398079 165.093185,102.560143 
	C164.960556,95.064430 164.998993,87.564713 165.098801,80.067657 
	C165.107239,79.432594 165.925339,78.808311 166.782394,78.127869 
z"/>
<path fill="#1D4290" opacity="1.000000" stroke="none" 
	d="
M96.647636,126.577942 
	C85.636253,126.951553 74.305336,127.066292 62.523167,127.311234 
	C62.861816,126.967140 63.652000,126.080322 64.441582,126.080856 
	C75.070480,126.088066 85.699280,126.218887 96.647636,126.577942 
z"/>
<path fill="#1E408F" opacity="1.000000" stroke="none" 
	d="
M128.765839,56.710129 
	C124.202148,58.875759 119.402016,60.777668 114.294189,62.643677 
	C114.069580,62.125172 114.030441,61.289234 114.253746,61.211994 
	C118.994537,59.572144 123.764832,58.017593 128.765839,56.710129 
z"/>
<path fill="#EFFFFF" opacity="1.000000" stroke="none" 
	d="
M43.032375,117.418678 
	C51.805431,117.137268 60.704731,117.150948 69.712738,117.588089 
	C69.821442,118.011551 69.449020,117.971153 68.798523,117.996460 
	C60.434746,118.075974 52.721478,118.130188 45.008205,118.184395 
	C44.391674,118.027519 43.775146,117.870644 43.032375,117.418678 
z"/>
<path fill="#1E3769" opacity="1.000000" stroke="none" 
	d="
M45.334724,118.439377 
	C52.721478,118.130188 60.434746,118.075974 68.627747,118.073395 
	C61.292065,118.314804 53.476658,118.504585 45.334724,118.439377 
z"/>
<path fill="#1E3C88" opacity="1.000000" stroke="none" 
	d="
M30.542370,97.347519 
	C31.192675,100.405434 31.605801,103.782425 31.940140,107.603073 
	C28.071316,105.077118 30.561611,101.165962 30.542370,97.347519 
z"/>
<path fill="#1E3C88" opacity="1.000000" stroke="none" 
	d="
M31.487526,77.081100 
	C31.797306,80.149467 31.735928,83.330368 31.339722,86.756897 
	C31.042051,83.732887 31.079210,80.463264 31.487526,77.081100 
z"/>
<path fill="#1942AD" opacity="1.000000" stroke="none" 
	d="
M78.941025,185.655396 
	C77.197533,186.413513 75.394058,186.824890 73.299538,187.131439 
	C74.298630,184.172638 76.189911,183.373550 78.941025,185.655396 
z"/>
<path fill="#1E408F" opacity="1.000000" stroke="none" 
	d="
M112.138229,62.369148 
	C110.173706,63.447422 108.041298,64.209084 105.538826,65.020340 
	C107.435951,64.064140 109.703148,63.058342 112.138229,62.369148 
z"/>
<path fill="#1E408F" opacity="1.000000" stroke="none" 
	d="
M102.622299,114.167603 
	C102.886856,114.022293 103.307549,114.044174 103.516724,114.059433 
	C103.819809,115.431450 103.913727,116.788200 104.044205,118.552155 
	C103.506424,117.410538 102.932083,115.861717 102.622299,114.167603 
z"/>
<path fill="#21418E" opacity="1.000000" stroke="none" 
	d="
M157.475586,43.673363 
	C157.169373,42.269455 157.082382,40.588974 156.970627,38.486954 
	C157.195526,39.842545 157.445175,41.619667 157.475586,43.673363 
z"/>
<path fill="#1E408F" opacity="1.000000" stroke="none" 
	d="
M135.680145,53.009865 
	C135.229492,53.643803 134.425201,54.271870 133.295959,54.920097 
	C133.756180,54.294838 134.541336,53.649418 135.680145,53.009865 
z"/>
<path fill="#1E3769" opacity="1.000000" stroke="none" 
	d="
M90.144455,118.536217 
	C90.422333,118.267082 90.887421,118.160812 91.706131,118.134384 
	C91.483711,118.375839 90.907692,118.537468 90.144455,118.536217 
z"/>
<path fill="#1E408F" opacity="1.000000" stroke="none" 
	d="
M132.623810,54.970184 
	C132.496277,55.292969 132.045761,55.616779 131.291061,55.959148 
	C130.986893,55.977707 130.978271,55.493347 130.989044,55.246719 
	C130.999832,55.000092 131.008484,54.988991 131.008484,54.988991 
	C131.439270,54.983063 131.870041,54.977135 132.623810,54.970184 
z"/>
<path fill="#1E408F" opacity="1.000000" stroke="none" 
	d="
M137.633484,52.085400 
	C137.872162,52.339939 137.757950,52.585171 137.231461,52.718670 
	C137.119537,52.478786 137.273331,52.301838 137.633484,52.085400 
z"/>
<path fill="#1E408F" opacity="1.000000" stroke="none" 
	d="
M130.994171,55.004555 
	C130.872818,54.867920 130.757141,54.726822 130.641464,54.585728 
	C130.725967,54.631985 130.810486,54.678242 130.951736,54.856743 
	C131.008484,54.988991 130.999832,55.000092 130.994171,55.004555 
z"/>
<path fill="#1E408F" opacity="1.000000" stroke="none" 
	d="
M103.922409,65.114197 
	C104.170235,65.037720 104.027321,65.511665 103.940834,65.743134 
	C103.854347,65.974609 103.418365,65.965378 103.200699,65.950966 
	C103.213554,65.687927 103.444069,65.439301 103.922409,65.114197 
z"/>
<path fill="#F5FEFF" opacity="1.000000" stroke="none" 
	d="
M43.502518,65.933853 
	C48.325535,65.588844 53.612946,65.216171 58.906910,65.025429 
	C61.687866,64.925224 64.480293,65.143471 67.478470,65.565872 
	C59.782814,65.936470 51.876221,65.959099 43.502518,65.933853 
z"/>
</svg>